<?xml version="1.0" encoding="utf-8"?>
<!-- Generator: Adobe Illustrator 23.1.0, SVG Export Plug-In . SVG Version: 6.00 Build 0)  -->
<svg version="1.1"
	 id="svg14872" xmlns:cc="http://creativecommons.org/ns#" xmlns:dc="http://purl.org/dc/elements/1.1/" xmlns:rdf="http://www.w3.org/1999/02/22-rdf-syntax-ns#" xmlns:svg="http://www.w3.org/2000/svg"
	 xmlns="http://www.w3.org/2000/svg" xmlns:xlink="http://www.w3.org/1999/xlink" x="0px" y="0px" viewBox="0 0 421.2 103"
	 style="enable-background:new 0 0 421.2 103;" xml:space="preserve">
<style type="text/css">
	.st0{clip-path:url(#SVGID_3_);}
	.st1{display:none;}
	.st2{display:inline;fill:#252C6E;}
	.st3{fill:#252C6E;}
	.st4{fill:#569FF6;}
	.st5{fill:none;}
	.st6{display:none;fill:none;}
	.st7{fill:none;stroke:#252C6E;stroke-width:2;}
</style>
<g id="logo-group">
	<g id="logo-center" transform="translate(5.684341886080802e-14 0)">
		<g>
			<defs>
				<polygon id="SVGID_1_" points="-302.8,-326 -301.8,-326 -302.8,-325 				"/>
			</defs>
			<defs>
				<polygon id="SVGID_2_" points="-304.8,-328 -305.8,-328 -304.8,-329 				"/>
			</defs>
			<clipPath id="SVGID_3_">
				<use xlink:href="#SVGID_1_"  style="overflow:visible;"/>
			</clipPath>
			<clipPath id="SVGID_4_" class="st0">
				<use xlink:href="#SVGID_2_"  style="overflow:visible;"/>
			</clipPath>
		</g>
		<g id="slogan" transform="translate(0 0)">
		</g>
		<g id="title" transform="translate(0 0)">
			<g id="path14881" class="st1">
				<path class="st2" d="M61.3-377.4v50.4H50.5v-50.4H61.3z M72.8-377.4l9.4,50.4H70.7l-9.4-50.4H72.8z M91.5-377.4h11.5L93.7-327
					H82.2L91.5-377.4z M103.1-377.4h10.8v50.4h-10.8C103.1-327,103.1-377.4,103.1-377.4z"/>
			</g>
			
				<g id="path14883" transform="translate(0 302.74912) translate(415.1785117762712 38.912) scale(1.22) translate(-421.55338 50.4)">
				<path class="st3" d="M182.6-307.6v39.6h-10.1v-39.6H182.6z"/>
				<rect x="172.5" y="-318.4" class="st4" width="10.1" height="6.5"/>
			</g>
			
				<g id="path14885" transform="translate(0 302.74912) translate(431.82006817627115 51.2096) scale(1.22) translate(-435.194 40.32)">
				<path class="st3" d="M187.9-264.6h10.9c2.3,4.3,5.8,5.8,9.6,5.8c8.2,0,12-4.2,12-10v-4c-2.4,3.5-6.5,5.4-13.5,5.4
					c-14.4,0-20.7-7.7-20.7-20.5c0-13.4,6.8-20.5,20.7-20.5c7.1,0,11.2,1.9,13.5,5.3v-4.6h10.1v41.5c0,9.4-9.4,17.1-22.1,17.1
					C198.8-249,190.1-253.6,187.9-264.6z M208.3-277c7.6,0,12.1-3.7,12.1-10.8c0-6.8-4.2-10.8-12.1-10.8c-7.6,0-12.1,3.7-12.1,10.8
					C196.2-281.1,200.5-277,208.3-277z"/>
			</g>
			
				<g id="path14887" transform="translate(0 302.74912) translate(490.66601177627115 38.912) scale(1.22) translate(-483.42838 50.4)">
				<path class="st3" d="M255.3-298.6c-6.4,0-10.9,3.2-10.9,9v21.6h-10.1v-50.4h10.1v15.3c2.4-3.4,6.4-5.2,13-5.2
					c10.9,0,18.8,7.1,18.8,18.7v21.6h-10.1v-21.6C266.2-295.2,262-298.6,255.3-298.6z"/>
			</g>
			
				<g id="path14889" transform="translate(0 302.74912) translate(542.6494431762711 38.912) scale(1.22) translate(-526.03775 50.4)">
				<path class="st3" d="M282.2-282.1V-299H277v-8.6h5.2v-10.8h10.1v10.8h15.3v8.6h-15.3v16.6c0,3.9,2.4,5,5.1,5h10.2v9.4h-12.4
					C288.7-268,282.2-270.8,282.2-282.1z"/>
			</g>
			<g id="path14891" transform="translate(0 302.74912) translate(581.422568176271 52.088) scale(1.22) translate(-557.819 39.6)">
				<path class="st3" d="M331.3-268h-10.5l-12-39.6h10.5L331.3-268z"/>
				<path class="st4" d="M326.9-253.6l16.4-54h10.5l-16.4,54H326.9z"/>
			</g>
			
				<g id="path14893" transform="translate(0 302.74912) translate(662.228499576271 38.912) scale(1.22) translate(-624.05337 50.4)">
				<path class="st4" d="M375-318.4h22.3c7.9,0,12.8,5.2,12.8,12.8c0,5.5-2.5,9.8-6.6,11.8c6.2,1.2,9.9,5.8,9.9,12.5
					c0,8.1-5.3,13.2-13.1,13.2H375V-318.4z M396.3-294.9c6.3,0,10.2-3.7,10.2-10.2c0-6.3-3.7-10.2-10.2-10.2h-17.7v20.3H396.3z
					 M399.7-271.3c6,0,10.1-3.9,10.1-10.2c0-6-3.8-10.2-10.1-10.2h-21.1v20.4H399.7z"/>
			</g>
			
				<g id="path14895" transform="translate(0 302.74912) translate(713.354124576271 38.912) scale(1.22) translate(-665.95962 50.4)">
				<path class="st4" d="M420.5-318.4v50.4h-3.6v-50.4H420.5z"/>
			</g>
		</g>
	</g>
</g>
<line class="st5" x1="2.8" y1="76.2" x2="26" y2="36.5"/>
<line class="st5" x1="49.9" y1="76.2" x2="2.8" y2="76.2"/>
<line class="st5" x1="9.1" y1="4.9" x2="67.2" y2="7.1"/>
<polygon class="st6" points="82.8,32.1 72.3,-8.9 113.1,2.5 "/>
<polygon class="st7" points="3.5,76.5 26,36.5 49.4,76.4 "/>
<polygon class="st7" points="77.3,16.3 54.1,57.4 30.1,16.4 "/>
<polygon class="st7" points="59,76.3 81.6,36.3 104.9,76.3 "/>
</svg>
