<svg width="421" height="106" viewBox="0 0 421 106" fill="none" xmlns="http://www.w3.org/2000/svg">
<g clip-path="url(#clip0_1_4)">
<path d="M104.501 27.6463V77.3655H92.1848V27.6463H104.501Z" fill="#252C6E"/>
<path d="M104.501 14.0866H92.1848V22.2476H104.501V14.0866Z" fill="#569FF6"/>
<path d="M110.964 81.6343H124.256C127.06 87.0331 131.328 88.9164 135.962 88.9164C145.961 88.9164 150.595 83.6432 150.595 76.3611V71.339C147.669 75.7333 142.669 78.1188 134.133 78.1188C116.573 78.1188 108.891 68.4512 108.891 52.3804C108.891 35.5562 117.183 26.6419 134.133 26.6419C142.791 26.6419 147.79 29.0274 150.595 33.2963V27.5208H162.911V79.6254C162.911 91.4275 151.449 101.095 135.962 101.095C124.256 101.221 113.647 95.4452 110.964 81.6343ZM135.84 66.0657C145.108 66.0657 150.595 61.4202 150.595 52.5059C150.595 43.9683 145.474 38.9462 135.84 38.9462C126.573 38.9462 121.085 43.5917 121.085 52.5059C121.085 60.918 126.329 66.0657 135.84 66.0657Z" fill="#252C6E"/>
<path d="M193.153 38.9462C185.349 38.9462 179.861 42.9639 179.861 50.246V77.3655H167.545V14.0866H179.861V33.2963C182.788 29.0275 187.666 26.7675 195.714 26.7675C209.005 26.7675 218.639 35.6818 218.639 50.246V77.3655H206.323V50.246C206.445 43.215 201.323 38.9462 193.153 38.9462Z" fill="#252C6E"/>
<path d="M225.955 59.6625V38.444H219.614V27.6464H225.955V14.0866H238.271V27.6464H256.929V38.444H238.271V59.2858C238.271 64.1824 241.198 65.5635 244.49 65.5635H256.929V77.3655H241.808C233.882 77.3655 225.955 73.85 225.955 59.6625Z" fill="#252C6E"/>
<path d="M285.829 77.3655H273.025L258.392 27.6463H271.196L285.829 77.3655Z" fill="#252C6E"/>
<path d="M53.0011 56.2378C54.1589 60.1716 51.2101 64.1133 47.1095 64.1133V64.1133C44.3855 64.1133 41.987 62.319 41.2179 59.7058L30.1999 22.2697C29.0421 18.3359 31.9909 14.3942 36.0915 14.3942V14.3942C38.8155 14.3942 41.214 16.1885 41.9831 18.8017L53.0011 56.2378Z" fill="#252C6E"/>
<path d="M37.3775 14.3942V77.1709H25.3832V14.3942H37.3775Z" fill="#252C6E"/>
<path d="M87.8535 14.3942V77.1709H75.8592V14.3942H87.8535Z" fill="#252C6E"/>
<path d="M61.1852 56.2378C60.0274 60.1716 62.9762 64.1133 67.0768 64.1133V64.1133C69.8008 64.1133 72.1993 62.319 72.9684 59.7058L83.9864 22.2697C85.1441 18.3359 82.1953 14.3942 78.0948 14.3942V14.3942C75.3708 14.3942 72.9722 16.1885 72.2032 18.8017L61.1852 56.2378Z" fill="#252C6E"/>
<path d="M54.8692 77.492H67.6731L82.3062 27.7728H69.5022L54.8692 77.492Z" fill="#252C6E"/>
<path d="M280.463 95.4452L300.462 27.6463H313.266L293.267 95.4452H280.463Z" fill="#569FF6"/>
<path d="M339.118 14.0866H366.311C375.944 14.0866 381.919 20.6154 381.919 30.1574C381.919 37.0629 378.871 42.4617 373.871 44.9728C381.431 46.4794 385.943 52.2549 385.943 60.6669C385.943 70.8368 379.48 77.24 369.969 77.24H339.118V14.0866ZM365.091 43.5917C372.774 43.5917 377.529 38.9462 377.529 30.7852C377.529 22.8753 373.017 17.9788 365.091 17.9788H343.507V43.4661H365.091V43.5917ZM369.237 73.2223C376.554 73.2223 381.553 68.3257 381.553 60.4158C381.553 52.8826 376.92 47.6094 369.237 47.6094H343.507V73.2223H369.237Z" fill="#569FF6"/>
<path d="M394.601 14.0866V77.3655H390.211V14.0866H394.601Z" fill="#569FF6"/>
<path d="M59.3171 77.492H46.5131L31.8801 27.7728H44.684L59.3171 77.492Z" fill="#252C6E"/>
</g>
<defs>
<clipPath id="clip0_1_4">
<rect width="421" height="106" fill="white"/>
</clipPath>
</defs>
</svg>
